<!-- sample rectangle -->
<svg width="20" height="20" viewBox="0 0 23 23" fill="none" xmlns="http://www.w3.org/2000/svg">
      <g clip-path="url(#clip0_1866_6348)">
        <path d="M18.6198 14.4947C17.8103 13.7445 16.7442 13.3003 15.5992 13.2608C15.5696 13.1029 15.5301 12.9351 15.4708 12.7772C14.9674 11.3557 13.7236 10.4772 12.2035 10.4673C10.2885 10.4673 8.27472 10.4673 6.22151 10.4673C6.00434 10.4673 5.75756 10.487 5.51078 10.5166C4.0301 10.7338 2.78632 12.1059 2.7271 13.5668C2.68761 14.6329 2.69748 15.7188 2.71723 16.7849V16.8638C2.7271 17.693 3.45757 18.384 4.30649 18.384H10.8807C11.0288 19.5389 11.5618 20.5853 12.4108 21.3355C13.2498 22.0857 14.3258 22.5003 15.4314 22.5003C15.5301 22.5003 15.6288 22.5003 15.7176 22.4904C16.9811 22.4016 18.1262 21.8685 18.9258 20.9801C19.7253 20.0917 20.1399 18.917 20.1004 17.6535C20.0511 16.4789 19.518 15.3239 18.6198 14.4947ZM18.5013 17.8904C18.5013 18.69 18.1854 19.4501 17.6129 20.0226C17.0404 20.5952 16.2902 20.911 15.4906 20.911C15.4906 20.911 15.4906 20.911 15.4807 20.911C13.8125 20.911 12.4404 19.5587 12.4404 17.9102C12.4404 16.2025 13.7631 14.86 15.4807 14.86C16.2803 14.86 17.0404 15.1759 17.603 15.7385C18.1854 16.311 18.5013 17.0711 18.5013 17.8904ZM14.0494 13.4978C12.4404 14.0407 11.4138 15.1462 10.9992 16.7947C10.4661 16.7947 9.92321 16.7947 9.39017 16.7947H4.44469C4.37559 16.7947 4.33611 16.7947 4.32623 16.7947C4.32623 16.775 4.31636 16.7355 4.31636 16.6664V16.2321C4.31636 15.472 4.31636 14.6922 4.31636 13.9222C4.31636 12.8462 5.09619 12.0664 6.17215 12.0566C8.51163 12.0566 10.4266 12.0566 12.1936 12.0566C13.1017 12.0566 13.852 12.6488 14.0494 13.4978Z" fill="white" />
        <path d="M8.81787 9.76481C8.93633 9.77468 9.06465 9.78455 9.19298 9.78455C9.9037 9.78455 10.5947 9.56739 11.187 9.1528C12.3123 8.3631 12.9046 7.20817 12.9342 5.70774C12.944 4.76997 12.6676 3.92105 12.1346 3.16097C11.5127 2.2923 10.5749 1.72964 9.54834 1.62106C8.54148 1.51247 7.5741 1.82835 6.81401 2.50947C5.97496 3.26955 5.47153 4.37513 5.43204 5.5498C5.39256 6.72448 5.82689 7.85967 6.60672 8.66911C7.20886 9.29099 7.98869 9.67597 8.81787 9.76481ZM7.66294 3.93092C8.06766 3.46697 8.63032 3.19058 9.19298 3.19058H9.29169C9.9037 3.23006 10.4762 3.56569 10.8612 4.11847C11.187 4.58242 11.335 5.09573 11.3449 5.69787C11.335 6.41847 11.108 7.01074 10.6737 7.49443C10.2591 7.93864 9.72602 8.18542 9.15349 8.18542C8.59083 8.17554 8.05779 7.91889 7.65307 7.44508C6.80414 6.4777 6.81401 4.8983 7.66294 3.93092Z" fill="white" />
        <path d="M16.0627 17.2866V16.3488C16.0627 15.9935 15.8357 15.7565 15.4902 15.7467C15.1447 15.7269 14.8881 15.9836 14.8782 16.3389C14.8782 16.4278 14.8782 16.5265 14.8782 16.6153V17.2866H14.5722C14.3649 17.2866 14.1576 17.2866 13.9503 17.2866C13.5851 17.2866 13.3481 17.5235 13.3481 17.8789C13.3481 18.2243 13.5653 18.4415 13.9207 18.4711C13.9996 18.4711 14.0786 18.4711 14.1477 18.4711H14.8782V18.6291C14.8782 18.8758 14.8782 19.1325 14.8782 19.3793C14.8782 19.7445 15.1151 20.011 15.4705 20.011C15.6778 20.011 15.8061 19.9222 15.8752 19.8531C15.9936 19.7445 16.0529 19.5767 16.0529 19.3892V18.4711H16.882C17.4941 18.4711 17.5928 18.1059 17.6026 17.8887C17.6026 17.7209 17.5533 17.5827 17.4546 17.4741C17.3262 17.3458 17.1486 17.2866 16.882 17.2866H16.0627Z" fill="white" />
      </g>
      <defs>
        <clipPath id="clip0_1866_6348">
          <rect width="22" height="22" fill="white" transform="translate(0.5 0.5)" />
        </clipPath>
      </defs>
    </svg>